<?xml version="1.0" standalone="no"?>
<!DOCTYPE svg PUBLIC "-//W3C//DTD SVG 20010904//EN"
 "http://www.w3.org/TR/2001/REC-SVG-20010904/DTD/svg10.dtd">
<svg version="1.0" xmlns="http://www.w3.org/2000/svg"
 width="326.000000pt" height="185.000000pt" viewBox="0 0 326.000000 185.000000"
 preserveAspectRatio="xMidYMid meet">

<g transform="translate(0.000000,185.000000) scale(0.100000,-0.100000)"
fill="#000000" stroke="none">
<path d="M569 1757 c-40 -27 -71 -78 -100 -166 -29 -85 -24 -197 12 -261 29
-52 46 -60 55 -26 l6 26 20 -23 c18 -21 19 -21 9 -1 -7 15 -7 24 1 32 15 15
45 15 54 0 4 -6 3 -8 -4 -4 -23 14 -18 -20 7 -42 l26 -23 -32 4 c-18 2 -33 0
-33 -3 0 -4 22 -37 50 -74 27 -37 53 -78 56 -91 3 -14 10 -25 15 -25 5 0 7 11
3 25 -3 14 -2 25 3 25 19 0 53 -47 53 -72 0 -31 -26 -38 -133 -38 -107 0 -129
18 -177 148 -9 22 -16 30 -23 23 -7 -7 -3 -29 11 -69 24 -65 28 -128 10 -167
-14 -31 -48 -33 -73 -5 -20 23 -45 26 -63 8 -9 -9 -12 -8 -12 6 0 9 4 26 10
36 8 15 6 17 -8 13 -22 -6 -74 -90 -61 -99 6 -3 20 2 32 12 12 10 17 12 10 5
-9 -10 -9 -18 0 -32 9 -15 7 -23 -14 -46 -40 -43 -67 -86 -75 -119 -4 -16 -11
-34 -16 -41 -5 -7 -7 -16 -4 -22 3 -5 -3 -7 -14 -4 -17 4 -18 8 -8 27 12 23
19 82 8 69 -11 -14 -60 -173 -60 -197 0 -30 36 -76 60 -76 29 0 50 -11 50 -27
0 -8 15 -20 33 -28 19 -8 39 -21 47 -29 7 -9 21 -16 32 -16 11 0 42 -7 69 -16
79 -26 146 -15 262 44 4 2 16 -16 28 -40 32 -69 121 -191 157 -214 41 -28 114
-44 195 -44 77 0 123 13 156 44 14 13 43 26 64 29 54 8 88 37 148 125 30 43
83 111 118 150 70 78 118 153 162 250 15 34 30 62 33 62 3 0 20 -9 38 -20 74
-43 117 -50 393 -65 148 -8 287 -17 308 -21 34 -5 37 -4 37 19 0 21 -6 26 -37
32 -21 3 -65 17 -99 30 -61 24 -93 27 -129 9 -24 -13 -276 0 -303 15 -10 5
-48 11 -85 12 -63 2 -69 4 -127 51 -39 32 -69 48 -83 47 -12 -2 -32 1 -43 4
-40 14 -158 -74 -207 -153 -12 -19 -32 -43 -44 -53 -20 -16 -53 -66 -53 -81 0
-2 13 1 30 7 23 9 32 8 42 -2 10 -11 10 -12 1 -7 -9 5 -13 1 -13 -12 0 -20
-58 -85 -70 -77 -4 3 -13 -2 -20 -10 -7 -8 -18 -15 -25 -15 -6 0 -34 -26 -61
-57 -27 -31 -64 -73 -82 -94 -18 -21 -50 -43 -70 -50 -20 -6 -40 -16 -43 -21
-3 -5 -12 1 -20 14 -12 18 -14 51 -9 159 l5 136 64 74 c75 86 103 120 81 101
-8 -6 -22 -12 -33 -12 -10 0 -48 -16 -83 -36 -35 -19 -72 -34 -81 -32 -10 2
-27 -7 -38 -19 -11 -12 -31 -24 -43 -28 -22 -6 -23 -5 -17 17 l7 23 -24 -22
c-13 -13 -29 -23 -34 -23 -12 0 -80 -34 -100 -51 -8 -6 -18 -8 -22 -4 -4 4 1
12 12 19 10 6 32 21 50 33 17 12 50 32 74 44 23 12 45 25 48 30 6 10 -39 13
-48 4 -3 -3 -42 -7 -87 -9 -92 -3 -96 12 -5 20 32 3 66 12 75 20 8 8 22 14 29
14 7 0 10 3 7 7 -11 11 -107 12 -134 2 -29 -11 -67 5 -57 24 4 7 -2 3 -14 -7
-23 -20 -25 -18 -23 29 2 23 0 27 -8 15 -6 -8 -11 -10 -12 -5 -1 6 -2 16 -3
23 0 7 -8 17 -16 22 -13 8 -12 10 4 10 15 0 16 3 6 15 -11 13 -10 14 5 9 13
-5 16 -4 11 4 -4 7 -1 12 8 12 9 0 16 -3 16 -8 0 -4 23 -22 50 -40 28 -18 50
-38 50 -44 0 -6 11 -8 26 -5 18 3 24 1 20 -9 -3 -9 2 -14 14 -14 13 0 20 7 20
19 0 25 -26 51 -50 51 -10 0 -22 4 -25 10 -3 5 8 9 27 8 28 -1 39 -10 75 -60
24 -32 49 -58 57 -58 28 0 161 52 213 83 47 27 52 34 46 56 -6 24 -5 25 13 11
18 -14 18 -14 5 2 -7 10 -17 16 -21 13 -4 -3 -11 12 -15 33 -12 63 -13 102 -4
96 5 -3 9 0 9 7 0 6 15 0 34 -15 19 -14 38 -26 42 -26 4 0 15 -7 24 -15 16
-14 17 -14 12 10 -3 18 -22 38 -59 63 -31 20 -69 57 -88 86 -30 45 -32 53 -19
66 12 13 9 17 -28 38 -24 13 -35 21 -26 18 10 -3 20 -1 23 5 4 5 3 9 -2 8 -35
-8 -93 84 -93 148 0 94 -51 244 -98 289 -61 59 -170 73 -233 31z m114 -9 c-4
-7 -6 -22 -4 -33 2 -15 0 -17 -9 -9 -13 13 -5 54 11 54 6 0 7 -6 2 -12z m111
-68 c-6 -6 -10 -3 -10 10 0 13 4 16 10 10 7 -7 7 -13 0 -20z m-71 -103 c-2 -4
-9 -5 -14 -2 -5 4 -12 -8 -16 -25 -6 -35 -6 -35 -108 -14 -23 4 -26 3 -15 -5
10 -7 11 -11 3 -11 -19 0 -16 -24 6 -48 23 -28 49 -28 72 0 25 28 31 20 23
-32 -5 -28 -13 -44 -27 -49 -18 -7 -18 -8 -2 -24 19 -20 8 -22 -32 -6 l-28 11
24 19 c13 11 21 22 17 26 -8 9 -56 -37 -56 -54 0 -8 -8 -13 -17 -11 -12 2 -22
18 -28 43 -5 22 -14 43 -20 47 -7 5 -6 8 1 8 6 0 14 19 17 42 4 34 14 50 44
76 85 74 100 79 134 44 15 -15 25 -30 22 -35z m41 47 c5 -14 4 -15 -9 -4 -17
14 -19 20 -6 20 5 0 12 -7 15 -16z m-154 -134 c0 -5 -4 -10 -9 -10 -6 0 -13 5
-16 10 -3 6 1 10 9 10 9 0 16 -4 16 -10z m131 -83 c-1 -12 -15 -9 -19 4 -3 6
1 10 8 8 6 -3 11 -8 11 -12z m227 -224 c22 -24 32 -47 10 -25 -24 24 -29 11
-6 -17 13 -15 26 -27 29 -25 4 2 9 -3 13 -11 10 -27 -11 -16 -48 25 -35 39
-46 57 -26 45 14 -9 13 8 -2 23 -6 6 -13 20 -14 29 -2 16 -1 15 9 -1 7 -11 22
-30 35 -43z m47 -22 c3 -5 2 -12 -3 -15 -5 -3 -9 1 -9 9 0 17 3 19 12 6z
m-250 -31 c3 -5 1 -10 -4 -10 -6 0 -11 5 -11 10 0 6 2 10 4 10 3 0 8 -4 11
-10z m-116 -247 c-3 -21 2 -33 16 -33 8 0 15 -4 15 -10 0 -17 -15 -11 -39 14
-21 22 -20 27 7 35 1 1 1 -2 1 -6z m941 -18 c-7 -9 -15 -13 -17 -11 -7 7 7 26
19 26 6 0 6 -6 -2 -15z m-1210 -35 c0 -5 14 -10 31 -10 18 0 28 -4 24 -10 -4
-6 -1 -9 7 -8 7 2 12 -5 12 -15 -2 -14 1 -15 12 -6 12 10 12 15 -2 30 -16 18
-16 19 4 19 15 0 20 -5 16 -15 -4 -8 -1 -15 6 -15 7 0 -10 -18 -36 -40 -57
-47 -75 -49 -91 -14 -12 26 -6 94 8 94 5 0 9 -4 9 -10z m1247 -52 c-24 -24
-52 -50 -63 -58 -18 -14 -18 -14 -5 5 30 41 85 95 98 95 7 0 -7 -19 -30 -42z
m-757 22 c0 -5 -10 -10 -22 -9 -22 0 -22 1 -3 9 11 5 21 9 23 9 1 1 2 -3 2 -9z
m-280 -56 c0 -8 -5 -12 -10 -9 -6 4 -8 11 -5 16 9 14 15 11 15 -7z m-239 -41
c13 -16 12 -17 -3 -4 -10 7 -18 15 -18 17 0 8 8 3 21 -13z m-161 -73 c0 -29
-3 -35 -17 -34 -12 2 -17 -9 -15 -27 1 -4 -8 -5 -18 -2 -43 11 -9 77 43 82 4
1 7 -8 7 -19z m585 -50 c-10 -11 -22 -17 -27 -14 -12 8 11 34 30 34 13 0 12
-3 -3 -20z m-35 -40 c0 -5 -5 -10 -11 -10 -5 0 -7 5 -4 10 3 6 8 10 11 10 2 0
4 -4 4 -10z m-510 -9 c0 -5 -11 -11 -25 -13 -17 -4 -25 -1 -25 8 0 8 11 14 25
14 14 0 25 -4 25 -9z m45 -81 c3 -5 -1 -10 -10 -10 -9 0 -13 5 -10 10 3 6 8
10 10 10 2 0 7 -4 10 -10z"/>
<path d="M1083 1220 c14 -11 33 -43 42 -73 22 -67 39 -86 29 -32 -9 52 -28 90
-56 109 -33 23 -45 19 -15 -4z"/>
<path d="M3010 1008 c-19 -12 -40 -23 -47 -24 -16 -3 -93 -65 -93 -76 0 -4 -8
-8 -17 -8 -9 0 -25 -8 -36 -17 -13 -12 -21 -14 -24 -7 -5 14 -43 6 -43 -8 0
-5 -4 -6 -10 -3 -5 3 -24 -1 -41 -10 -23 -13 -34 -14 -43 -5 -8 8 -6 9 9 4 16
-7 17 -6 6 7 -17 18 -84 20 -69 2 5 -6 16 -9 24 -6 8 3 14 -1 14 -10 0 -8 -8
-14 -17 -13 -13 1 -23 -15 -38 -59 -25 -75 -32 -85 -55 -85 -40 0 -34 -38 17
-105 26 -35 55 -64 63 -65 16 0 340 318 340 334 0 4 -12 0 -27 -9 l-28 -18 19
22 c11 12 25 20 32 17 22 -8 127 126 117 150 -7 19 -12 18 -53 -8z"/>
<path d="M211 994 c0 -11 3 -14 6 -6 3 7 2 16 -1 19 -3 4 -6 -2 -5 -13z"/>
<path d="M3078 980 c-14 -16 -24 -30 -22 -30 2 0 -5 -9 -16 -20 -11 -11 -20
-25 -20 -31 0 -5 -5 -7 -12 -3 -6 4 -8 3 -5 -4 8 -13 -39 -71 -141 -171 -42
-42 -94 -98 -116 -125 -21 -26 -56 -61 -79 -77 -22 -16 -34 -29 -27 -29 7 0
57 44 110 98 68 68 118 109 169 137 77 42 201 147 201 171 0 8 4 14 9 14 11 0
45 70 37 77 -3 3 -24 -11 -47 -31 -51 -43 -65 -39 -21 7 18 18 29 36 26 40
-12 12 -18 8 -46 -23z"/>
<path d="M202 950 c0 -14 2 -19 5 -12 2 6 2 18 0 25 -3 6 -5 1 -5 -13z"/>
<path d="M2660 906 c0 -18 37 -36 58 -29 14 6 16 33 2 33 -5 0 -10 -5 -10 -10
0 -6 -11 -3 -25 6 -23 15 -25 15 -25 0z"/>
<path d="M2815 909 c-4 -6 -5 -12 -2 -15 2 -3 7 2 10 11 7 17 1 20 -8 4z"/>
<path d="M2760 900 c-8 -5 -10 -10 -5 -10 6 0 17 5 25 10 8 5 11 10 5 10 -5 0
-17 -5 -25 -10z"/>
<path d="M192 850 c0 -14 2 -19 5 -12 2 6 2 18 0 25 -3 6 -5 1 -5 -13z"/>
<path d="M176 805 c-9 -26 -7 -32 5 -12 6 10 9 21 6 23 -2 3 -7 -2 -11 -11z"/>
</g>
</svg>
